<svg width="24" height="24" viewBox="0 0 24 24" fill="none" xmlns="http://www.w3.org/2000/svg">
<path d="M21.5156 7.125C21.5469 7.25 21.5625 7.45312 21.5625 7.73438C21.5625 9.98438 21.0156 12.1562 19.9219 14.25C18.7969 16.4688 17.2188 18.2344 15.1875 19.5469C12.9688 21.0156 10.4219 21.75 7.54688 21.75C4.79688 21.75 2.28125 21.0156 0 19.5469C0.34375 19.5781 0.734375 19.5938 1.17188 19.5938C3.45312 19.5938 5.5 18.8906 7.3125 17.4844C6.21875 17.4844 5.25 17.1719 4.40625 16.5469C3.59375 15.8906 3.03125 15.0781 2.71875 14.1094C3.03125 14.1406 3.32812 14.1562 3.60938 14.1562C4.04688 14.1562 4.48438 14.1094 4.92188 14.0156C3.79688 13.7656 2.85938 13.1875 2.10938 12.2812C1.35938 11.375 0.984375 10.3438 0.984375 9.1875V9.09375C1.67188 9.5 2.40625 9.71875 3.1875 9.75C2.53125 9.28125 2 8.6875 1.59375 7.96875C1.1875 7.25 0.984375 6.46875 0.984375 5.625C0.984375 4.75 1.21875 3.92188 1.6875 3.14062C2.90625 4.67188 4.39062 5.89063 6.14062 6.79688C7.92188 7.70312 9.8125 8.20312 11.8125 8.29688C11.75 7.92188 11.7188 7.54688 11.7188 7.17188C11.7188 6.29687 11.9375 5.48438 12.375 4.73438C12.8125 3.95312 13.4062 3.34375 14.1562 2.90625C14.9062 2.46875 15.7188 2.25 16.5938 2.25C17.3125 2.25 17.9688 2.39062 18.5625 2.67188C19.1875 2.95312 19.7344 3.32812 20.2031 3.79688C21.3281 3.57812 22.375 3.1875 23.3438 2.625C22.9688 3.78125 22.25 4.6875 21.1875 5.34375C22.125 5.21875 23.0625 4.95313 24 4.54688C23.3125 5.54687 22.4844 6.40625 21.5156 7.125Z" fill="url(#paint0_linear)"/>
<defs>
<linearGradient id="paint0_linear" x1="12" y1="0" x2="12" y2="24" gradientUnits="userSpaceOnUse">
<stop stop-color="#BC9CFF"/>
<stop offset="1" stop-color="#8BA4F9"/>
</linearGradient>
</defs>
</svg>
