<svg width="24" height="24" fill="none" xmlns="http://www.w3.org/2000/svg"><path d="M22.5 3.75v16.5a2.17 2.17 0 0 1-.656 1.594 2.17 2.17 0 0 1-1.594.656h-3.984v-8.297h2.812l.422-3.187h-3.234V9c0-.5.093-.875.28-1.125.25-.281.673-.422 1.267-.422H19.5V4.641c-.656-.094-1.469-.141-2.438-.141-1.25 0-2.25.375-3 1.125-.718.719-1.078 1.734-1.078 3.047v2.344h-2.859v3.187h2.86V22.5H3.75a2.17 2.17 0 0 1-1.594-.656A2.17 2.17 0 0 1 1.5 20.25V3.75c0-.625.219-1.156.656-1.594A2.17 2.17 0 0 1 3.75 1.5h16.5a2.17 2.17 0 0 1 1.594.656c.437.438.656.969.656 1.594Z" fill="url(#a)"/><defs><linearGradient id="a" x1="12" y1="0" x2="12" y2="24" gradientUnits="userSpaceOnUse"><stop stop-color="#BC9CFF"/><stop offset="1" stop-color="#8BA4F9"/></linearGradient></defs></svg>