<svg width="48" height="48" fill="none" xmlns="http://www.w3.org/2000/svg"><path d="M30.188 33.094c-1.813 1.25-3.875 1.875-6.188 1.875-2.313 0-4.406-.625-6.281-1.875-1.813-1.313-3.125-3-3.938-5.063H34.22c-.813 2.063-2.157 3.75-4.032 5.063ZM19.03 21.187c-.562.563-1.25.844-2.062.844-.813 0-1.532-.281-2.157-.843-.562-.625-.843-1.344-.843-2.157 0-.812.281-1.5.844-2.062.624-.625 1.343-.938 2.156-.938.812 0 1.5.313 2.062.938.625.562.938 1.25.938 2.062 0 .813-.313 1.532-.938 2.157Zm14.063 0c-.563.563-1.25.844-2.063.844-.812 0-1.531-.281-2.156-.843-.563-.625-.844-1.344-.844-2.157 0-.812.282-1.5.844-2.062.625-.625 1.344-.938 2.156-.938.813 0 1.5.313 2.063.938.625.562.937 1.25.937 2.062 0 .813-.312 1.532-.937 2.157ZM12.656 35.344C15.844 38.469 19.625 40.03 24 40.03c4.375 0 8.125-1.562 11.25-4.687 3.188-3.188 4.781-6.969 4.781-11.344 0-4.375-1.593-8.125-4.781-11.25-3.125-3.187-6.875-4.78-11.25-4.78s-8.156 1.593-11.344 4.781C9.531 15.875 7.97 19.625 7.97 24s1.562 8.156 4.687 11.344ZM9.844 9.937C13.78 6 18.5 4.032 24 4.032S34.188 6 38.063 9.938C42 13.812 43.968 18.5 43.968 24S42 34.219 38.062 38.156C34.188 42.031 29.5 43.97 24 43.97s-10.219-1.94-14.156-5.814C5.969 34.22 4.03 29.5 4.03 24S5.97 13.812 9.844 9.937Z" fill="url(#a)"/><defs><linearGradient id="a" x1="24" y1="0" x2="24" y2="48" gradientUnits="userSpaceOnUse"><stop stop-color="#BC9CFF"/><stop offset="1" stop-color="#8BA4F9"/></linearGradient></defs></svg>