<svg width="24" height="24" fill="none" xmlns="http://www.w3.org/2000/svg"><path d="M12 6.61c-.969 0-1.875.25-2.719.75a5.406 5.406 0 0 0-1.969 1.968A5.252 5.252 0 0 0 6.61 12c0 .969.235 1.875.704 2.719a5.93 5.93 0 0 0 1.968 1.969A5.51 5.51 0 0 0 12 17.39c.969 0 1.86-.235 2.672-.703.844-.5 1.5-1.157 1.969-1.97.5-.843.75-1.75.75-2.718a5 5 0 0 0-.75-2.672 4.972 4.972 0 0 0-1.97-1.969A5 5 0 0 0 12 6.61Zm0 8.906a3.386 3.386 0 0 1-2.484-1.032A3.386 3.386 0 0 1 8.484 12c0-.969.344-1.797 1.032-2.484A3.386 3.386 0 0 1 12 8.484c.969 0 1.797.344 2.484 1.032A3.386 3.386 0 0 1 15.516 12c0 .969-.344 1.797-1.032 2.484A3.386 3.386 0 0 1 12 15.516Zm6.89-9.141c-.03.344-.171.64-.421.89-.219.25-.5.376-.844.376s-.64-.125-.89-.375a1.217 1.217 0 0 1-.376-.891c0-.344.125-.64.375-.89s.547-.376.891-.376.64.125.89.375.376.547.376.891Zm3.563 1.266c-.062-.907-.203-1.688-.422-2.344A5.13 5.13 0 0 0 20.72 3.28a5.13 5.13 0 0 0-2.016-1.312c-.656-.219-1.437-.344-2.344-.375C15.484 1.53 14.031 1.5 12 1.5s-3.5.031-4.406.094c-.875.031-1.64.156-2.297.375A5.537 5.537 0 0 0 3.234 3.28 5.392 5.392 0 0 0 1.97 5.297c-.219.656-.36 1.437-.422 2.344C1.516 8.516 1.5 9.969 1.5 12s.016 3.5.047 4.406c.062.875.203 1.64.422 2.297a5.841 5.841 0 0 0 1.265 2.063 5.318 5.318 0 0 0 2.063 1.218c.656.25 1.422.391 2.297.422.906.063 2.375.094 4.406.094 2.031 0 3.484-.031 4.36-.094.906-.031 1.687-.156 2.343-.375a5.392 5.392 0 0 0 2.016-1.265 5.536 5.536 0 0 0 1.312-2.063c.219-.656.344-1.422.375-2.297.063-.906.094-2.375.094-4.406 0-2.031-.016-3.484-.047-4.36Zm-2.25 10.546c-.375.938-1.047 1.61-2.015 2.016-.5.188-1.344.313-2.532.375-.656.031-1.625.047-2.906.047h-1.5c-1.25 0-2.219-.016-2.906-.047-1.156-.062-2-.187-2.531-.375-.938-.375-1.61-1.047-2.016-2.015-.188-.532-.313-1.375-.375-2.532a68.365 68.365 0 0 1-.047-2.906v-1.5c0-1.25.016-2.219.047-2.906.062-1.188.187-2.031.375-2.531.375-.97 1.047-1.641 2.015-2.016.532-.188 1.375-.313 2.532-.375a68.37 68.37 0 0 1 2.906-.047h1.5c1.25 0 2.219.016 2.906.047 1.188.062 2.031.187 2.531.375.97.375 1.641 1.047 2.016 2.015.188.5.313 1.344.375 2.532.031.656.047 1.625.047 2.906v1.5c0 1.25-.016 2.219-.047 2.906-.062 1.156-.187 2-.375 2.531Z" fill="url(#a)"/><defs><linearGradient id="a" x1="12" y1="0" x2="12" y2="24" gradientUnits="userSpaceOnUse"><stop stop-color="#BC9CFF"/><stop offset="1" stop-color="#8BA4F9"/></linearGradient></defs></svg>