<svg width="48" height="48" fill="none" xmlns="http://www.w3.org/2000/svg"><path d="M37.969 30v-4.031H34.03V30h3.938Zm0 7.969V34.03H34.03v3.938h3.938Zm-12-24V10.03H22.03v3.938h3.938Zm0 8.062V18H22.03v4.031h3.938Zm0 7.969v-4.031H22.03V30h3.938Zm0 7.969V34.03H22.03v3.938h3.938Zm-12-15.938V18H10.03v4.031h3.938Zm0 7.969v-4.031H10.03V30h3.938Zm0 7.969V34.03H10.03v3.938h3.938ZM30 22.03h12V42H6V13.969h12V10.03l6-6 6 6v12Z" fill="url(#a)"/><defs><linearGradient id="a" x1="24" y1="0" x2="24" y2="48" gradientUnits="userSpaceOnUse"><stop stop-color="#BC9CFF"/><stop offset="1" stop-color="#8BA4F9"/></linearGradient></defs></svg>