<svg width="24" height="24" fill="none" xmlns="http://www.w3.org/2000/svg"><path d="M21.516 7.125c.03.125.047.328.047.61 0 2.25-.547 4.421-1.641 6.515-1.125 2.219-2.703 3.984-4.735 5.297-2.218 1.469-4.765 2.203-7.64 2.203-2.75 0-5.266-.734-7.547-2.203.344.031.734.047 1.172.047 2.281 0 4.328-.703 6.14-2.11-1.093 0-2.062-.312-2.906-.937a5.085 5.085 0 0 1-1.687-2.438c.312.032.61.047.89.047.438 0 .875-.047 1.313-.14-1.125-.25-2.063-.829-2.813-1.735-.75-.906-1.125-1.937-1.125-3.094v-.093a4.634 4.634 0 0 0 2.204.656 5.46 5.46 0 0 1-1.594-1.781 4.683 4.683 0 0 1-.61-2.344c0-.875.235-1.703.704-2.484A13.646 13.646 0 0 0 6.14 6.797a13.794 13.794 0 0 0 5.671 1.5 6.832 6.832 0 0 1-.093-1.125c0-.875.219-1.688.656-2.438a4.77 4.77 0 0 1 1.781-1.828 4.754 4.754 0 0 1 2.438-.656c.718 0 1.375.14 1.968.422a5.472 5.472 0 0 1 1.641 1.125 10.015 10.015 0 0 0 3.14-1.172c-.374 1.156-1.093 2.063-2.155 2.719.937-.125 1.875-.39 2.812-.797-.688 1-1.516 1.86-2.484 2.578Z" fill="url(#a)"/><defs><linearGradient id="a" x1="12" y1="0" x2="12" y2="24" gradientUnits="userSpaceOnUse"><stop stop-color="#BC9CFF"/><stop offset="1" stop-color="#8BA4F9"/></linearGradient></defs></svg>